<svg width="920" height="980" viewBox="0 0 920 980" fill="none" xmlns="http://www.w3.org/2000/svg">
  <rect width="920" height="980" rx="72" fill="#F5F8FC"/>
  <ellipse cx="458" cy="222" rx="252" ry="146" fill="url(#paint0_radial_111_2)" fill-opacity="0.5"/>
  <rect x="86" y="84" width="748" height="812" rx="52" fill="url(#paint1_linear_111_2)" stroke="#D7E3F0" stroke-width="4"/>
  <rect x="130" y="128" width="660" height="724" rx="40" fill="#F3F6FB"/>
  <path d="M310 850H613V760C613 650.67 544.33 582 435 582C366.33 582 310 638.33 310 707V850Z" fill="#1F3561"/>
  <path d="M610 850H748V724C748 648.889 687.111 588 612 588H610V850Z" fill="#223A6A"/>
  <path d="M172 850H310V588H308C232.889 588 172 648.889 172 724V850Z" fill="#223A6A"/>
  <path d="M382 850H540V590H382V850Z" fill="#FFFDF8"/>
  <path d="M458 624L504 850H412L458 624Z" fill="#EFF3FA"/>
  <path d="M277 332C277 218.818 361.818 134 475 134C588.182 134 673 218.818 673 332V416C673 529.182 588.182 614 475 614C361.818 614 277 529.182 277 416V332Z" fill="#C99577"/>
  <path d="M321 350C321 258.35 392.35 187 484 187C575.65 187 647 258.35 647 350V427C647 518.65 575.65 590 484 590C392.35 590 321 518.65 321 427V350Z" fill="#E7B08F"/>
  <path d="M291 269C291 176.807 365.807 102 458 102C550.193 102 625 176.807 625 269V313C625 336.196 643.804 355 667 355C690.196 355 709 336.196 709 313V261C709 122.928 597.072 11 459 11C320.928 11 209 122.928 209 261V321C209 344.196 227.804 363 251 363C274.196 363 293 344.196 293 321V269H291Z" fill="#18253B"/>
  <path d="M255 282C255 147.24 364.24 38 499 38C633.76 38 743 147.24 743 282V542C743 586.183 707.183 622 663 622H631V332C631 232.589 550.411 152 451 152H397C317.589 152 253 216.589 253 296V620H255C210.817 620 175 584.183 175 540V282H255Z" fill="#1C2740"/>
  <path d="M206 378C210 552 284 708 331 791H233C180.009 722.449 150.975 638.37 150 551V430C150 401.281 173.281 378 202 378H206Z" fill="#1B2842"/>
  <path d="M710 378C706 552 632 708 585 791H683C735.991 722.449 765.025 638.37 766 551V430C766 401.281 742.719 378 714 378H710Z" fill="#1B2842"/>
  <path d="M365 376C400 393 425 401 453 401C483 401 510 392 547 376" stroke="#C28163" stroke-width="10" stroke-linecap="round"/>
  <path d="M392 340C406 330 424 326 443 328" stroke="#5E3A33" stroke-width="7" stroke-linecap="round"/>
  <path d="M504 328C522 326 539 330 553 340" stroke="#5E3A33" stroke-width="7" stroke-linecap="round"/>
  <ellipse cx="425" cy="365" rx="16" ry="12" fill="#2A1D1C"/>
  <ellipse cx="534" cy="365" rx="16" ry="12" fill="#2A1D1C"/>
  <path d="M478 360V425" stroke="#C07F62" stroke-width="7" stroke-linecap="round"/>
  <path d="M435 470C462.5 486.5 498.5 486.5 528 470" stroke="#A04A4A" stroke-width="9" stroke-linecap="round"/>
  <rect x="367" y="326" width="98" height="74" rx="24" stroke="#9CB5D8" stroke-width="8"/>
  <rect x="489" y="326" width="98" height="74" rx="24" stroke="#9CB5D8" stroke-width="8"/>
  <path d="M465 360H489" stroke="#9CB5D8" stroke-width="8" stroke-linecap="round"/>
  <path d="M353 360H336" stroke="#9CB5D8" stroke-width="8" stroke-linecap="round"/>
  <path d="M618 360H601" stroke="#9CB5D8" stroke-width="8" stroke-linecap="round"/>
  <path d="M379 614L434 674L360 850H212L256 690C270 639.5 316.5 604 369 604H379V614Z" fill="#273E70"/>
  <path d="M579 614L524 674L598 850H746L702 690C688 639.5 641.5 604 589 604H579V614Z" fill="#273E70"/>
  <path d="M382 604C390 643 421 667 456 667C491 667 522 643 530 604H382Z" fill="#FFF8EF"/>
  <path d="M392 850L458 689L528 850H392Z" fill="#FFFFFF"/>
  <defs>
    <radialGradient id="paint0_radial_111_2" cx="0" cy="0" r="1" gradientUnits="userSpaceOnUse" gradientTransform="translate(458 222) rotate(90) scale(146 252)">
      <stop stop-color="#8EB8F8"/>
      <stop offset="1" stop-color="#8EB8F8" stop-opacity="0"/>
    </radialGradient>
    <linearGradient id="paint1_linear_111_2" x1="460" y1="84" x2="460" y2="896" gradientUnits="userSpaceOnUse">
      <stop stop-color="#FFFFFF"/>
      <stop offset="1" stop-color="#F0F5FA"/>
    </linearGradient>
  </defs>
</svg>
